<svg xmlns="http://www.w3.org/2000/svg" width="100" height="100"><path d="M30.613 17.654c-7.168 0-13 5.832-13 13v39c0 7.168 5.832 13 13 13h39c7.168 0 13-5.832 13-13v-39c0-7.169-5.83-13-13-13h-39zm0 2h39c6.065 0 11 4.935 11 11v39c0 6.065-4.935 11-11 11h-39c-6.065 0-11-4.935-11-11v-39c0-6.065 4.935-11 11-11zm2.838 2.998c-5.976 0-10.838 4.862-10.838 10.838v33.326c0 5.976 4.862 10.836 10.838 10.836h33.326c5.976 0 10.836-4.86 10.836-10.836V48.154a.499.499 0 10-1 0v18.662c0 5.424-4.412 9.838-9.836 9.838H33.451c-5.424 0-9.838-4.414-9.838-9.838V33.49c0-5.424 4.414-9.838 9.838-9.838h33.662a.5.5 0 000-1H33.451zm22.701 14.696c-3.894 0-7.06 3.167-7.06 7.062 0 .322.02.64.06.953a18.21 18.21 0 01-12.535-6.63.498.498 0 00-.818.064 7.073 7.073 0 00.805 8.223 6.065 6.065 0 01-1.073-.465.5.5 0 00-.742.418l-.002.1a7.089 7.089 0 003.586 6.15 5.927 5.927 0 01-.69-.092.509.509 0 00-.468.158.502.502 0 00-.102.484 7.059 7.059 0 005.252 4.752 12.569 12.569 0 01-6.795 1.965c-.508 0-1.016-.03-1.508-.088a.5.5 0 00-.328.916 19.124 19.124 0 0010.33 3.028c12.003 0 19.176-9.751 19.176-19.176 0-.202-.004-.403-.011-.604a13.717 13.717 0 003.183-3.365.5.5 0 00-.617-.734c-.557.248-1.13.451-1.717.615a7.049 7.049 0 001.512-2.603.5.5 0 00-.73-.583 12.672 12.672 0 01-3.749 1.477 7.102 7.102 0 00-4.959-2.025zm20.961.306a.5.5 0 00-.5.5v2a.5.5 0 001 0v-2a.5.5 0 00-.5-.5zm-20.959.694c1.671 0 3.285.699 4.428 1.916a.5.5 0 00.461.146 13.536 13.536 0 003.021-.97 6.087 6.087 0 01-2.093 2.09.499.499 0 00.314.923c.77-.09 1.529-.247 2.268-.465a12.884 12.884 0 01-2.125 1.928.5.5 0 00-.207.426c.01.274.02.553.02.83 0 8.934-6.798 18.174-18.175 18.174-2.792 0-5.524-.64-8.01-1.864 2.92-.1 5.666-1.099 7.973-2.908a.5.5 0 00-.299-.892 6.065 6.065 0 01-5.365-3.457 7.084 7.084 0 002.32-.233.5.5 0 00-.03-.972c-2.562-.514-4.483-2.624-4.813-5.213a7.08 7.08 0 002.404.505c.225.032.424-.134.492-.347a.5.5 0 00-.197-.569 6.063 6.063 0 01-2.697-5.046c0-.83.169-1.648.494-2.403a19.2 19.2 0 0013.398 6.46.526.526 0 00.409-.18c.1-.12.139-.281.103-.434a6.07 6.07 0 015.906-7.445zm20.96 3.306a.5.5 0 00-.5.5v4a.5.5 0 001 0v-4c0-.277-.224-.5-.5-.5z"/></svg>